<svg id="Layer_1" data-name="Layer 1" xmlns="http://www.w3.org/2000/svg" viewBox="0 0 333 298.07"><defs><style>.cls-1{fill:#fff;}</style></defs><path class="cls-1" d="M279.63,2.24,280,181.66l34.27-34.4,34.41,34.26L383,147.11l34.41,34.26L417,2Zm60,101c-5.84,5.86-13.18,9.37-19.62,9.38-7,0-15.2-5.38-15.23-20.64,0-6.58,2.58-14.48,5.23-15.94,1.07-.58,2.06-1.1,2.94-1.56,1.33-.69,2.48-1.29,3.48-1.91,2.77-1.73,4.46-3,5.58-3.85,1.45-1.1,2.17-1.64,3.23-1.65a40.06,40.06,0,0,1,7.87,1.29h0c4.68,1.25,6.51,2.36,6.51,3.94,0,.67-.54,1.18-1.35,2A21.73,21.73,0,0,0,335,78.07a2.23,2.23,0,0,1-1.46.7c-.56,0-1.13-.44-2-1.11A14.57,14.57,0,0,0,322,74c-5.76,0-7.79,7.13-7.78,13.22,0,12.68,4.24,19.09,12.52,19.08a15.51,15.51,0,0,0,7-1.9,12.12,12.12,0,0,0,4-3.06c.33-.38.55-.63.9-.64a1.88,1.88,0,0,1,1.48,1.63A1.17,1.17,0,0,1,339.63,103.22Zm11.59,39-2.45,15-2.55-15c-.56-3.71-.84-2.33-.85-6.14l-2.28-75.31-18.08-2-1.41,1.42-2.9-2.89,2.89-2.9L325,55.83l20.18-2.34-.1-30.77H344V20.82h1.64l-2.35-2.34,5-5,5,5L351,20.8h1.56V22.7h-1.08l.09,30.8,20,2.3,1.48-1.48L376,57.2l-2.89,2.9-1.48-1.47-17.89,2.13L352,136.1C352,139.91,351.75,138.53,351.22,142.24Zm29.28-32h-.05a24.7,24.7,0,0,0-4.48,1.46,5,5,0,0,1-1.64.5c-2.11,0-3-.68-5.93-5.81-5.24-9.28-10.29-16-12-16-.75,0-.75-1-.75-1.31s0-1.15.56-1.36c.77-.34,1.53-.65,2.29-1,5.45-2.24,10.15-4.18,10.27-11.42,0-.66,0-.92-.22-.94a1.7,1.7,0,0,0-.93.28l-.2.11a1.45,1.45,0,0,1-.65.23c-.72,0-1.4-1.17-1.4-1.87a1,1,0,0,1,.75-1l.09-.05c2.38-1.07,3.35-1.53,5.33-2.46,4.17-2,5.56-2.59,6-2.59A1.68,1.68,0,0,1,379,68.44c0,.21,0,.47,0,1s-.1,1.34-.18,2.66c-.23,3.59-.56,6-3.3,8.34a54.48,54.48,0,0,1-10.34,6.39l-.12.06c3.84,2.78,6.69,7.35,9.7,12.19.66,1.06,1.33,2.13,2,3.21.17.28.35.55.52.82,1.34,2.12,2.25,3.37,3.46,3.8a1.84,1.84,0,0,0,.39.1,1.49,1.49,0,0,0,.61,0c.78-.13,1,1.51,1,1.9C382.78,109.73,382.16,109.87,380.5,110.22Z" transform="translate(-182 -1.95)"/><path class="cls-1" d="M252.85,287.49a1.7,1.7,0,0,1-.61,0,3.15,3.15,0,0,1-.39-.1c-1.2-.44-2.11-1.69-3.44-3.8-.17-.27-.34-.55-.52-.82q-1-1.62-2-3.21c-3-4.83-5.83-9.4-9.66-12.18l.12-.07a53.44,53.44,0,0,0,10.33-6.35c2.74-2.38,3.08-4.73,3.31-8.31.08-1.32.14-2.13.18-2.66s.06-.78.06-1a1.67,1.67,0,0,0-1.47-1.39c-.46,0-1.85.63-6,2.57l-4.62,2.15a1,1,0,0,0-.74,1c0,.7.62,1.81,1.34,1.81a8.64,8.64,0,0,1,1-.22c.18,0,.22.29.22.94-.13,7.23-4.83,9.15-10.27,11.38-.76.31-1.53.62-2.29,1-.56.21-.56.92-.56,1.35s0,1.31.74,1.31c1.73,0,6.76,6.73,12,16,2.89,5.13,3.8,5.81,5.91,5.81a5,5,0,0,0,1.64-.5,24.88,24.88,0,0,1,4.47-1.44h.05c1.66-.35,2.28-.48,2.28-1.29C253.89,289,253.63,287.36,252.85,287.49Z" transform="translate(-182 -1.95)"/><path class="cls-1" d="M225.51,273.76c0-13,.45-21.08,1.33-24.11a2,2,0,0,0,.12-.6,1.59,1.59,0,0,0-1.31-1.31,4.77,4.77,0,0,0-1.74.67c-.67.32-1.59.76-3,1.39-1.21.57-3,1.33-4.78,2.07a22,22,0,0,0-2.33,1,1,1,0,0,0-.68,1c0,.54.45,1.78,1.36,1.78h.69c1.49,0,1.75,3.08,1.75,9.56v5.64c0,16.23-1.19,17.8-1.53,18.36s-.82.7-.82,1.23c0,.34.55,2.16,1.32,2.16a1.77,1.77,0,0,0,.87-.29c.69-.37,1.17-.73,5.85-1.89,2-.46,3.2-1.08,3.2-2.75,0-.36,0-.67,0-1.15C225.71,284.75,225.51,278.9,225.51,273.76Z" transform="translate(-182 -1.95)"/><path class="cls-1" d="M269.22,287.49c-.17,0-.32.07-.42,0s-.39-.32-.43-1.1c-.21-4.45-.4-15.2-.4-15.65,0-15.47.95-19.33,1.3-20.78a3.77,3.77,0,0,0,.15-.87,1.53,1.53,0,0,0-1.31-1.47c-.48,0-1.35.4-4.25,1.74l-2.8,1.28c-3.53,1.61-2.74,1.28-4.89,2.2a1.22,1.22,0,0,0-.68,1c0,.46.45,1.84,1.34,1.83.36,0,.39-.14.82-.14,1.75,0,1.75,7.73,1.75,15.2,0,10.71-.35,15.63-.54,18.27-.06.89-.1,1.48-.1,1.93a2,2,0,0,0,1.79,2.11,4.24,4.24,0,0,0,1.69-.51,26.72,26.72,0,0,1,5.54-1.8l.42-.08c1.21-.22,2-.37,2-1.14C270.21,289.47,270.18,287.49,269.22,287.49Z" transform="translate(-182 -1.95)"/><path class="cls-1" d="M318.4,247.27a4,4,0,0,0-1.71.51c-.42.17-1,.44-1.78.73s-1.16.42-2.78,1c-4.72,1.64-4.54,1.75-4.54,2.36s.64,2,1.44,2c1.09-.07,2.37,0,2.37,5.61,0,8.49,0,12.37-.24,14.51v0l-.33-.34A72.7,72.7,0,0,0,301.9,266a90.94,90.94,0,0,1-12.48-11.2,26.42,26.42,0,0,1-4.15-5.81l-.3-.56a2,2,0,0,0-1.56-.8c-.87,0-2.76.83-5.78,2.18-1.26.57-.86.41-2,.91s-1.53.62-1.53,1.28.52,2,1.34,2c.23,0,.09-.13.76-.13s1.22.87,1.82,1.93a6.33,6.33,0,0,1,1,4.17c0,1.05,0,2.12.08,3.26s.08,2.49.08,3.83c0,6.8-.13,11.77-.4,14.76-.61,6.17-1.72,7.38-2.44,8.05-.21.21-.55.38-.55.82s.44,2.12,1.36,2.12,3.33-1.2,4.21-1.64c.53-.27,1-.49,1.4-.68,1.55-.72,2.58-1.19,2.58-2.91,0-1-.06-2.18-.12-3.41-.05-.83-.09-1.71-.12-2.65-.16-4-.47-14.84-.56-18.47l.25.25a127.38,127.38,0,0,0,12.91,11.34l3.24,2.63a62.45,62.45,0,0,1,11.83,12.06c.47.62.82,1.15,1.1,1.58.56.85.9,1.36,1.47,1.36a1.93,1.93,0,0,0,1.79-1.71c0-.48,0-1.11-.09-2-.11-1.95-.31-5.23-.31-10.82,0-6.72.41-16.74.88-21.44a27.75,27.75,0,0,1,.54-3.82c.34-1.39.49-2.08,1.05-2.57a.89.89,0,0,0,.41-.9C319.53,248.28,319.14,247.27,318.4,247.27Z" transform="translate(-182 -1.95)"/><path class="cls-1" d="M363.13,268.69a6.54,6.54,0,0,0-2.21.87c-1.19.57-1.23.61-4.13,1.89-1.74.75-1.51.64-3,1.34l-2.38,1.09a1.09,1.09,0,0,0-.68,1.09c0,.69.57,1.71,1.33,1.71.32,0,.48-.23.85-.23,0,.21-.07.51-.14.86-.13.77-.26,2-.42,3.56l-.15,1.37c-.07.62-.1.65-.47,1-3.09,2.63-5.88,3.59-7,3.59-8.26,0-12.46-6.42-12.46-19.06,0-8.87,3.16-13.18,9.64-13.18,6.16,0,10.44,3.12,12.5,4.62.89.64,1.29.93,1.67.93a1.85,1.85,0,0,0,1.38-.7,22.69,22.69,0,0,1,3.32-3.8c.82-.78,1.36-1.29,1.36-2,0-1.68-2.32-3.18-6.88-4.46a42.3,42.3,0,0,0-9.72-1.59c-1.13,0-2.22.65-4.39,1.94-1.28.77-3,1.82-5.43,3.11-.89.47-1.73.91-2.52,1.31-6.86,3.54-10.3,5.31-10.3,18.45C322.87,287.62,331,293,338,293c4.7,0,9.91-3.33,13.7-6.15a26.35,26.35,0,0,1-1.17,6.4c-.85,3.13-1.76,3.83-2.26,4.21a1.12,1.12,0,0,0-.57.91c0,.56.52,1.63,1.23,1.63.89,0,2.4-.94,6.1-3.6l.92-.66c1.73-1.21,3.58-2.66,3.76-4.65a78.07,78.07,0,0,1,1.48-12.18c1.09-6.17,2.09-6.67,2.49-7.13.24-.27.75-.42.75-1.12S363.92,268.69,363.13,268.69Z" transform="translate(-182 -1.95)"/><path class="cls-1" d="M393.62,266.82a54.23,54.23,0,0,0-7,.72,51.08,51.08,0,0,1-6.29.65c-3.25,0-3.93-3.23-3.93-5.93,0-1.19.17-5.18,2.36-6.67a7,7,0,0,1,3.74-1,14.11,14.11,0,0,1,10.82,4.67c.59.59.88.88,1.26.88a1.32,1.32,0,0,0,1.38-.71,18.38,18.38,0,0,1,3.34-3.84c.8-.73,1.33-1.21,1.33-1.91a1.94,1.94,0,0,0-.57-1.42c-2.18-2.06-9.09-4.47-15.14-4.63-.94,0-2,.81-3.91,2.3a77.88,77.88,0,0,1-7.78,5.42,10.65,10.65,0,0,0-5,9.12c0,5,2.69,8.47,6.54,8.47a43.93,43.93,0,0,0,6.31-.56,35.62,35.62,0,0,1,5.12-.49c4.57,0,6.34,1.83,6.34,6.5,0,5.89-1.33,7.87-5.29,7.87A15.39,15.39,0,0,1,377,282.4c-1-.87-1.36-1.22-1.35-1.55s.6-.42.6-.9a1.75,1.75,0,0,0-1.42-1.58c-.46,0-.91.45-2,1.63-.28.31-.55.62-.8.87a25.85,25.85,0,0,1-3.54,3.21c-1,.79-1.43,1.18-1.43,1.76a2.19,2.19,0,0,0,.47,1.4C370.24,290,378,293,384.85,293c.83,0,1.64-.63,3.1-1.78a61.62,61.62,0,0,1,9.29-6.17c3.66-2,4.21-7.54,4.21-10.67C401.4,270.88,400.47,266.82,393.62,266.82Z" transform="translate(-182 -1.95)"/><path class="cls-1" d="M482.41,288.59c-3.82-.85-3.38-11-3.38-19.41s-.13-17.65,3.77-17.92c.32,0,1.06-.32,1.06-1.72,0-1.25-.74-1.39-1.06-1.39l-2.24,0c-5.16.11-15.23.36-27.3.36-11,0-21.9-.28-26.15-.37l-1.54,0c-.32,0-1.07.14-1.07,1.39,0,1.4.85,1.72,1.16,1.72,4.08,0,3.59,8.43,3.59,17.92,0,7.89.26,18.74-3.54,19.37-1.14.18-1.21,1.37-1.21,1.8s0,1.47,1.23,1.47l2.45-.08c4.58-.17,13.28-.57,26-.57,13,0,20.6.37,25.23.54,1.65.07,2.75.11,3.27.11s1-.5,1-1.47C483.62,289.73,483.8,288.9,482.41,288.59Zm-24.14-19.41c0-16.76,1.5-17.61,5.85-17.61,5.25,0,6.5,0,6.5,17.61,0,17.45-1,19-6.18,19S458.27,285.49,458.27,269.18Zm-8.25,0c0,17.45-1,19-6.18,19s-6.18-2.66-6.18-19c0-15.3.78-17.61,5.94-17.61C449.16,251.57,450,251.57,450,269.18Z" transform="translate(-182 -1.95)"/><path class="cls-1" d="M393.62,266.8a54.09,54.09,0,0,0-7,.71,49.42,49.42,0,0,1-6.29.66c-3.25,0-3.93-3.23-3.93-5.94,0-1.19.17-5.18,2.36-6.67a7.12,7.12,0,0,1,3.74-1,14.15,14.15,0,0,1,10.82,4.67c.59.59.88.89,1.26.89a1.34,1.34,0,0,0,1.38-.71,18.12,18.12,0,0,1,3.34-3.84c.8-.73,1.33-1.21,1.33-1.91a2,2,0,0,0-.57-1.43c-2.18-2.06-9.09-4.47-15.14-4.63-.93,0-2,.82-3.91,2.3a74.65,74.65,0,0,1-7.78,5.42,10.67,10.67,0,0,0-5,9.12c0,5,2.69,8.47,6.54,8.47a42.54,42.54,0,0,0,6.31-.56,35.59,35.59,0,0,1,5.12-.48c4.57,0,6.34,1.82,6.34,6.5,0,5.88-1.33,7.87-5.29,7.87a15.39,15.39,0,0,1-10.3-3.83c-1-.87-1.21-1.09-1.21-1.42s.22-.24.22-.71a1.86,1.86,0,0,0-1.47-1.63c-.46,0-.72.3-1.24.91-.27.32-.56.61-.81.87a34.12,34.12,0,0,1-4,3.66c-1,.79-1.43,1.18-1.43,1.76a2.22,2.22,0,0,0,.47,1.41h0C370.24,290,378,293,384.85,293c.83,0,1.64-.63,3.1-1.78a60.85,60.85,0,0,1,9.29-6.17c3.66-2,4.21-7.54,4.21-10.67C401.4,270.85,400.47,266.8,393.62,266.8Z" transform="translate(-182 -1.95)"/><path class="cls-1" d="M215.75,224.77c-.36,0-.58.25-.91.63a12.07,12.07,0,0,1-4,3,15.28,15.28,0,0,1-7,1.88c-8.26,0-12.45-6.41-12.45-19.06,0-6.08,2-13.18,7.78-13.18a14.53,14.53,0,0,1,9.52,3.63c.87.68,1.44,1.12,2,1.12a2.2,2.2,0,0,0,1.46-.7,21.85,21.85,0,0,1,3.32-3.8c.81-.78,1.35-1.29,1.35-2,0-1.57-1.82-2.68-6.49-3.94h0a40.1,40.1,0,0,0-7.86-1.3c-1.05,0-1.78.55-3.22,1.63-1.12.84-2.81,2.12-5.57,3.84-1,.62-2.15,1.21-3.48,1.9-.88.45-1.87,1-2.94,1.55-2.65,1.45-5.25,9.32-5.25,15.89,0,15.23,8.16,20.63,15.15,20.63,6.43,0,13.76-3.49,19.6-9.33a1.12,1.12,0,0,0,.46-.83A1.85,1.85,0,0,0,215.75,224.77Z" transform="translate(-182 -1.95)"/><path class="cls-1" d="M302.21,190.79a5.1,5.1,0,0,0-2.44.79c-2.06,1-3.54,1.73-4.63,2.23l-.9.41c-1,.46-1.89.81-2.64,1.11-1,.39-1.07.4-1.66.65a1,1,0,0,0-.71.91c0,.64.72,2.36,1.41,2,.15-.08.43-.27.57-.15s.48.63.48,2.12V223.1a36.22,36.22,0,0,1-.16,4.36c-.06.5-.06.54-.5.85a12,12,0,0,1-5.44,2c-9.3,0-13.82-5.68-13.82-17.37,0-8.46,1.91-14.55,3.54-17.2a8.15,8.15,0,0,1,1.47-1.74c.39-.37.7-.66.7-1.1,0-.73-.51-1.79-1.31-1.79a5.46,5.46,0,0,0-1.76.65c-1,.43-2.62,1.16-5.35,2.29-1.25.51-1.48.6-3.28,1.24-.84.31-1.45.5-1.89.7a1.05,1.05,0,0,0-.81.95c0,.39.36,2.24,1.46,2,.48-.12.59.15.59.44a18.62,18.62,0,0,1-.57,2c-.25.85-.58,1.91-.87,3a52.08,52.08,0,0,0-1.3,11.07c0,13.61,6,21.11,16.84,21.11,1.13,0,2.06-.46,3.74-1.28a74.81,74.81,0,0,1,7.95-3.42l.39-.15c0,.45-.08.88-.13,1.3s-.1,1-.13,1.43a2,2,0,0,0,1.79,2.12,6.09,6.09,0,0,0,2-.65,24.86,24.86,0,0,1,6.4-1.93c.79-.12,1.46-.29,1.46-1,0-.46-.07-1.95-1-1.95-.27,0-.89,0-1-1.14-.26-2.24-.4-11.09-.4-16,0-1.83,0-7.4.16-11.49v-.14c.15-4-.07-6.37,1.58-8.29.64-.74,1.34-.82,1.34-1.33C303.35,191.88,303,190.79,302.21,190.79Z" transform="translate(-182 -1.95)"/><path class="cls-1" d="M332.94,210.36a54.09,54.09,0,0,0-7,.71,49.23,49.23,0,0,1-6.29.66c-3.24,0-3.92-3.23-3.92-5.94,0-1.19.17-5.18,2.35-6.67a7.12,7.12,0,0,1,3.74-1,14.2,14.2,0,0,1,10.83,4.67c.58.59.87.89,1.25.89a1.33,1.33,0,0,0,1.38-.72,18.56,18.56,0,0,1,3.34-3.83c.8-.73,1.33-1.22,1.33-1.91a2,2,0,0,0-.57-1.43c-2.18-2.06-9.09-4.47-15.14-4.63-.93,0-2,.82-3.91,2.3a74.65,74.65,0,0,1-7.78,5.42,10.64,10.64,0,0,0-5,9.12c0,5,2.69,8.47,6.54,8.47a42.52,42.52,0,0,0,6.3-.56,35.6,35.6,0,0,1,5.13-.48c4.56,0,6.33,1.82,6.33,6.5,0,5.88-1.33,7.87-5.29,7.87a15.39,15.39,0,0,1-10.3-3.83c-1-.87-1.21-1.09-1.21-1.42s.22-.24.22-.71a1.85,1.85,0,0,0-1.47-1.63c-.46,0-.71.3-1.24.91-.27.32-.56.61-.81.86a34.49,34.49,0,0,1-4,3.67c-1,.79-1.43,1.18-1.43,1.76a2.17,2.17,0,0,0,.47,1.4h0c2.73,2.73,10.53,5.78,17.34,5.78.84,0,1.64-.63,3.1-1.78a60.1,60.1,0,0,1,9.29-6.17c3.66-2,4.21-7.54,4.21-10.67C340.72,214.41,339.79,210.36,332.94,210.36Z" transform="translate(-182 -1.95)"/><path class="cls-1" d="M385,230.68c-.18,0-.5.22-.95-.45-1.19-1.85-3.88-8.44-6.25-14.26-.78-1.93-1.55-3.81-2.24-5.46-2.51-6-4.66-11.57-5.07-12.63a24,24,0,0,1-1.65-5.67h0a1.89,1.89,0,0,0-1.63-1.49,3.65,3.65,0,0,0-.85.16l-.73.18c-1.64.44-3.38.86-5.22,1.3-2.79.68-2.67.56-5.24,1.35a.93.93,0,0,0-.75.88c0,.61.58,2.4,1.31,2.12.38-.15,1-.05,1,.53a12.71,12.71,0,0,1-1.14,4l-.21.54a179.59,179.59,0,0,1-10.52,22.71l-1,1.77a46.67,46.67,0,0,1-3.11,5.19,14.53,14.53,0,0,1-1.69,2.05c-.33.34-.58.59-.58,1s.48,1.71,1.31,1.71a2.75,2.75,0,0,0,.88-.24c.67-.24,1.91-.68,4.41-1.38,1-.29,1.82-.44,2.45-.57,1.36-.26,2.18-.42,2.34-1.53a35.78,35.78,0,0,1,1.35-6,75.52,75.52,0,0,1,2.8-7.29,5.65,5.65,0,0,1,.26-.57h0l2.87-.1c4.14-.15,8.42-.31,11.84-.31.27,0,.35,0,.34,0l.07.16c1.91,5.11,3,8.55,4,11.89.5,1.6,1,3.11,1.52,4.74a2.25,2.25,0,0,0,2,1.65,3.85,3.85,0,0,0,1.49-.6,17.45,17.45,0,0,1,5.55-2.19l.35-.08c.73-.14,1.65-.32,1.65-1.14C386.07,232,385.76,230.68,385,230.68Zm-17.06-16.36-.34,0-.42,0c-2.92.15-8.15.4-10.27.4h-1.18a3.66,3.66,0,0,1,.2-.5c.85-2.15,1.77-4.66,2.67-7.08,1.2-3.25,2.34-6.32,3-7.79h0l.13-.3c.05.08.1.18.16.3.28.64,3,7.26,5.71,14.15l.1.26C367.8,214,367.87,214.15,367.94,214.32Z" transform="translate(-182 -1.95)"/><path class="cls-1" d="M470.32,193.17c-.53,0-.6.54-.78.68a23,23,0,0,1-4.21-1.41h0c-3.09-1.18-3.61-1.32-5.09-1.32-1.7,0-6.79,2.1-13.23,6.11-1,.62-2.14,1.21-3.47,1.9-.88.45-1.87,1-2.94,1.55-2.65,1.45-5.26,9.33-5.26,15.9,0,14.74,8.82,20,16.36,20,6.43,0,13.76-3.49,19.6-9.33a1.14,1.14,0,0,0,.47-.83,1.86,1.86,0,0,0-1.47-1.63c-.36,0-.57.25-.9.63a12.15,12.15,0,0,1-4,3,15.27,15.27,0,0,1-7,1.88c-5.23,0-11.85-2.16-13.76-12.47a5.39,5.39,0,0,1-.15-1.11c0-.42.15-.49.2-.52a8.39,8.39,0,0,1,1.73-.27c1.81-.07,3.85-.16,6.74-.16,2,0,4.24.07,6.26.14,1.72,0,3.34.1,4.53.1,2.12,0,2.68-.15,3.17-.88.82-1.36,1.38-2.22,1.74-2.8.6-.93.74-1.15.74-1.49a1.67,1.67,0,0,0-1.55-1.39,1.21,1.21,0,0,0-.73.31,4,4,0,0,1-.48.32c-.51.29-2.13.83-7.28,1.22-3.05.25-7.67.57-12.43.57a23.67,23.67,0,0,1-2.45-.08c-.32,0-.35,0-.35-1.24.27-4.41,1.49-7.77,3.64-10,1.44-1.51,5.94-3,8.25-3,4.36,0,6.45,2.34,7.84,3.89.7.78,1.2,1.34,1.82,1.34a1.84,1.84,0,0,0,1.42-.76,29.39,29.39,0,0,1,3.95-6.08c.52-.68.79-.88.79-1.19A2.1,2.1,0,0,0,470.32,193.17Z" transform="translate(-182 -1.95)"/><path class="cls-1" d="M513.93,231a.7.7,0,0,0-.29,0,.66.66,0,0,1-.26,0c-1.2,0-2.94-1.61-4.9-4.75-.51-.82-1.06-1.72-1.62-2.66-2.36-3.93-5-8.37-7.25-9.95l.06,0c12.34-6.42,12.34-12,12.34-15.42,0-4.6-2.52-6.94-7.5-6.94-3.67,0-9.88,4-14.08,7.36-2,1.59-2.32,1.83-3,2.33l-.15.11h0a29.49,29.49,0,0,1,1.24-7.57,3,3,0,0,0,.21-.92,1.53,1.53,0,0,0-1.31-1.47c-.48,0-1.35.4-4.25,1.74l-2.8,1.28c-1.74.79-2.19,1-3.33,1.48s-.41.15-1.45.65a1.25,1.25,0,0,0-.68,1c0,.47.45,1.81,1.34,1.81.2,0,.39,0,.71,0,1.75,0,1.75,8.42,1.75,15.19,0,9.09.14,13.69-.25,16.41-.19,1.52-.29,1.84-1,2.43-.14.11-.26.21-.39.33a1.33,1.33,0,0,0-.55,1.08c0,.63.67,1.63,1.23,1.63a1.65,1.65,0,0,0,.89-.31c.66-.36,1-.68,5.77-1.84,2.66-.63,3.2-1.55,3.2-2.75,0-.17,0-.54,0-1.12-.08-2.27-.29-8.3-.29-20.13,0-6,8.53-12.21,11.49-12.21,1.25,0,4.17,0,4.17,5.37s-4,8.84-12.94,11c-.58.19-.58.87-.58,1.28s0,1.31.74,1.31c2.4,0,7.36,8.84,10,13.58,3,5.39,4.72,5.81,6.63,5.81a3.69,3.69,0,0,0,1.46-.5,15.43,15.43,0,0,1,4.57-1.58l.17,0c1.67-.35,2-.41,2-1.21C515,232.45,514.72,231,513.93,231Z" transform="translate(-182 -1.95)"/><path class="cls-1" d="M259.68,231a.68.68,0,0,0-.29,0,.71.71,0,0,1-.27,0c-1.19,0-2.93-1.61-4.9-4.75-.51-.82-1.05-1.72-1.61-2.66-2.37-3.93-5-8.37-7.25-9.95l.06,0c12.34-6.42,12.34-12,12.34-15.42,0-4.6-2.52-6.94-7.5-6.94-3.67,0-9.88,4-14.08,7.36-2,1.59-2.32,1.83-3,2.33l-.15.11h0a29.49,29.49,0,0,1,1.24-7.57,3,3,0,0,0,.21-.92,1.53,1.53,0,0,0-1.31-1.47c-.48,0-1.35.4-4.25,1.74l-2.8,1.28c-1.74.79-2.19,1-3.33,1.48a15.53,15.53,0,0,0-1.45.65,1.23,1.23,0,0,0-.68,1c0,.47.45,1.81,1.34,1.81.2,0,.39,0,.71,0,1.75,0,1.75,8.42,1.75,15.19,0,9.09.14,13.69-.26,16.41-.18,1.52-.29,1.84-1,2.43-.14.11-.26.21-.39.33a1.33,1.33,0,0,0-.55,1.08c0,.63.67,1.63,1.23,1.63a1.65,1.65,0,0,0,.89-.31c.66-.36,1-.68,5.77-1.84,2.66-.63,3.2-1.55,3.2-2.75,0-.17,0-.54,0-1.12-.08-2.27-.29-8.3-.29-20.13,0-6,8.53-12.21,11.49-12.21,1.25,0,4.17,0,4.17,5.37s-4,8.84-12.94,11c-.59.19-.59.87-.59,1.28s0,1.31.75,1.31c2.4,0,7.36,8.84,10,13.58,3,5.39,4.73,5.81,6.64,5.81a3.69,3.69,0,0,0,1.46-.5,15.32,15.32,0,0,1,4.57-1.58l.17,0c1.66-.35,2-.41,2-1.21C260.75,232.45,260.47,231,259.68,231Z" transform="translate(-182 -1.95)"/><path class="cls-1" d="M430.85,210.4c0,13.87-2.74,17.35-11.22,21.51-8.13,4-8.38,4.65-9.88,4.65-2.74,0-6.44-1.57-7.76-1.93a26.62,26.62,0,0,0-6.78-.9c-2.63,0-2.76.82-3.79.82-.5,0-1.31-1-1.31-1.26s0-.4.41-.82c2.25-2.75,2-8,2-12v-9.18c0-7,.32-10.44-1.75-10.44h-.61c-.5,0-.92-1.17-.92-1.58a.62.62,0,0,1,.44-.56c2-.64,2.83-.89,6.58-2,12-3.91,16.36-6,21.26-6C428.27,190.72,430.85,202.59,430.85,210.4Zm-30.56-.75c-.09,2.08-.09,8-.09,11,0,3.16,0,4.16,2.83,5.73,2.24,1.25,7.88,4.4,10.13,4.4a10.43,10.43,0,0,0,5.89-1.32c2.41-1.25,2.49-2.16,3-7.81.09-1.16.17-5.4.17-6.81,0-14.28-6.23-18.6-14.78-18.6C401.2,196.2,400.62,201.51,400.29,209.65Z" transform="translate(-182 -1.95)"/><path class="cls-1" d="M407.1,245.45a3.48,3.48,0,0,1,2.55,1.06,3.59,3.59,0,1,1-2.55-1.06Zm0,.72a2.89,2.89,0,1,0,2.9,2.89,2.89,2.89,0,0,0-2.9-2.89Zm1.7,4.81h-.95l-.31-.62a2.84,2.84,0,0,0-.52-.75.86.86,0,0,0-.63-.2h-.14V251h-.77v-3.82h1.88a1.28,1.28,0,0,1,.9.29,1,1,0,0,1,.31.78,1,1,0,0,1-.28.72,1.2,1.2,0,0,1-.75.35v0a1.08,1.08,0,0,1,.39.24,5.43,5.43,0,0,1,.43.65Zm-2.55-2.17h.8c.47,0,.7-.18.7-.53s-.26-.52-.79-.52h-.71Z" transform="translate(-182 -1.95)"/></svg>